<svg xmlns="http://www.w3.org/2000/svg" xmlns:xlink="http://www.w3.org/1999/xlink" width="50" height="50" viewBox="0 0 50 50"><defs><style>.a{clip-path:url(#b);}.b{fill:#ff1690;}</style><clipPath id="b"><rect width="50" height="50"/></clipPath></defs><g id="a" class="a"><path class="b" d="M16.025,49.979h0c-.04-.063-4.077-6.415-8.012-13.674C5.687,32.012,3.833,28.222,2.5,25.037.842,21.056,0,18.016,0,16A16,16,0,0,1,27.314,4.686,15.9,15.9,0,0,1,32,16c0,2.016-.84,5.056-2.5,9.037-1.325,3.185-3.173,6.975-5.491,11.266-3.921,7.256-7.946,13.611-7.987,13.674ZM16,10.984a.991.991,0,0,0-.864.5L9.878,20.5a1,1,0,0,0,.863,1.5H21.259a1,1,0,0,0,.864-1.5L16.864,11.48A.991.991,0,0,0,16,10.984Z" transform="translate(9)"/></g></svg>