<svg xmlns="http://www.w3.org/2000/svg" xmlns:xlink="http://www.w3.org/1999/xlink" width="50" height="50" viewBox="0 0 50 50"><defs><style>.a{clip-path:url(#b);}.b{fill:#36cdc4;}</style><clipPath id="b"><rect width="50" height="50"/></clipPath></defs><g id="a" class="a"><path class="b" d="M-103.974,49.979h0c-.04-.063-4.077-6.415-8.012-13.674-2.326-4.291-4.179-8.081-5.509-11.266-1.662-3.981-2.5-7.021-2.5-9.037a15.9,15.9,0,0,1,4.686-11.314A15.894,15.894,0,0,1-104,0,15.9,15.9,0,0,1-92.686,4.686,15.9,15.9,0,0,1-88,16c0,2.016-.84,5.056-2.5,9.037-1.325,3.185-3.172,6.975-5.491,11.266-3.919,7.252-7.946,13.611-7.986,13.674ZM-109.259,13a.99.99,0,0,0-.867.5.989.989,0,0,0,0,1l5.26,9.015a.989.989,0,0,0,.863.5.991.991,0,0,0,.864-.5l5.259-9.015a.988.988,0,0,0,0-1,.989.989,0,0,0-.867-.5Z" transform="translate(129)"/></g></svg>