<svg xmlns="http://www.w3.org/2000/svg" xmlns:xlink="http://www.w3.org/1999/xlink" width="50" height="50" viewBox="0 0 50 50"><defs><style>.a{clip-path:url(#b);}.b{fill:#36cdc4;}</style><clipPath id="b"><rect width="50" height="50"/></clipPath></defs><g id="a" class="a"><path class="b" d="M21,50h0a116.485,116.485,0,0,1-10.5-10.15,62.9,62.9,0,0,1-7.219-9.425C1.1,26.816,0,23.645,0,21A21,21,0,0,1,35.849,6.151,20.862,20.862,0,0,1,42,21c0,2.646-1.1,5.816-3.281,9.424A62.9,62.9,0,0,1,31.5,39.849,116.51,116.51,0,0,1,21,50ZM12.7,13a1,1,0,0,0-.875,1.486l8.3,14.941a1,1,0,0,0,1.749,0l8.3-14.941A1,1,0,0,0,29.3,13Z" transform="translate(4)"/></g></svg>