<svg xmlns="http://www.w3.org/2000/svg" xmlns:xlink="http://www.w3.org/1999/xlink" width="100" height="100" viewBox="0 0 100 100"><defs><style>.a{clip-path:url(#j);}.b{fill:none;stroke:#ff1690;stroke-linecap:round;stroke-width:10px;}.c{fill:#36cdc4;}.d{filter:url(#g);}.e{filter:url(#e);}.f{filter:url(#c);}.g{filter:url(#a);}</style><filter id="a" x="-1.478" y="2.052" width="99.76" height="34" filterUnits="userSpaceOnUse"><feOffset input="SourceAlpha"/><feGaussianBlur stdDeviation="4" result="b"/><feFlood flood-color="#ff1690"/><feComposite operator="in" in2="b"/><feComposite in="SourceGraphic"/></filter><filter id="c" x="-20.892" y="-18.605" width="140.327" height="136.128" filterUnits="userSpaceOnUse"><feOffset input="SourceAlpha"/><feGaussianBlur stdDeviation="5" result="d"/><feFlood flood-color="#ff1690"/><feComposite operator="in" in2="d"/><feComposite in="SourceGraphic"/></filter><filter id="e" x="29.708" y="0.294" width="70.54" height="94.61" filterUnits="userSpaceOnUse"><feOffset input="SourceAlpha"/><feGaussianBlur stdDeviation="4" result="f"/><feFlood flood-color="#ff1690"/><feComposite operator="in" in2="f"/><feComposite in="SourceGraphic"/></filter><filter id="g" x="-3.444" y="0.294" width="70.54" height="94.61" filterUnits="userSpaceOnUse"><feOffset input="SourceAlpha"/><feGaussianBlur stdDeviation="4" result="h"/><feFlood flood-color="#ff1690"/><feComposite operator="in" in2="h"/><feComposite in="SourceGraphic"/></filter><clipPath id="j"><rect width="100" height="100"/></clipPath></defs><g id="i" class="a"><g class="g" transform="matrix(1, 0, 0, 1, 0, 0)"><path class="b" d="M0,17.322H65.76" transform="translate(15.52 1.73)"/></g><g class="f" transform="matrix(1, 0, 0, 1, 0, 0)"><path class="c" d="M.632-3.3l.163-.314q0-1.045-2.767-1.15a22.994,22.994,0,0,1-6.1-3.554,15.863,15.863,0,0,1-3.663-3.867,15.617,15.617,0,0,1-1.14-1.777q0-.314.57-.523t1.384-.523a4.416,4.416,0,0,1,2.116-.523,1.885,1.885,0,0,1,1.221.47,13.951,13.951,0,0,1,1.547,1.62q1.953,2.2,6.674,3.5A40.35,40.35,0,0,0,11.376-8.629,47.922,47.922,0,0,0,25.05-10.511a29,29,0,0,0,6.186-2.247q1.953-1.1,1.953-2.456,0-1.254-1.791-3.031a5.227,5.227,0,0,0-1.384-1.516,25.172,25.172,0,0,0-2.523-1.62q-.977-.523-3.744-2.3a45.135,45.135,0,0,1-5.372-1.672L14.957-26.4A53.367,53.367,0,0,1,4.783-30.736Q-1-33.819-2.95-36.119a9.626,9.626,0,0,1-3.581-3.763,10.8,10.8,0,0,1-1.3-5.226,10.975,10.975,0,0,1,2.442-6.9q1.953-2.822,8.628-7.839a58.457,58.457,0,0,1,10.256-6.585l4.233-2.613a.652.652,0,0,1,.488-.47,3.386,3.386,0,0,1,.488-.052q.488-.209,3.419-.993a23.867,23.867,0,0,0,6.186-2.77q11.07-3.449,17.826-4.965A52.956,52.956,0,0,1,57.283-79.81a24.323,24.323,0,0,1,10.5,2.456q4.314,2.247,5.128,5.906a4.225,4.225,0,0,1,.326,1.881q0,3.763-4.233,8.1a25.838,25.838,0,0,1-9.6,6.324,24.986,24.986,0,0,1-5.7,1.15,1.874,1.874,0,0,1-1.546-.523,2.213,2.213,0,0,1-.244-1.672,3.462,3.462,0,0,1,1.058-2.143,34.519,34.519,0,0,1,4.8-3.92q6.674-6.167,6.674-9.2,0-1.777-2.442-1.881-1.791-.314-9.035.523t-7.244,1.359a1.473,1.473,0,0,1-.081.366q-.081.261-.57.157-.651-.1-12.046,4.338T21.306-61.623q-.163.523-1.221,1.1a12.458,12.458,0,0,1-2.523.993,19.143,19.143,0,0,0-5.7,3.345,61.256,61.256,0,0,0-6.186,6.271A16.445,16.445,0,0,0,2.5-46.049a7.639,7.639,0,0,0-1.221,3.763A3.869,3.869,0,0,0,1.771-40.3q.814,1.777,5.046,4.338A65.347,65.347,0,0,0,17.4-31a125.553,125.553,0,0,1,13.919,5.906q5.616,2.874,7.081,4.86,3.744,3.345,3.744,7.421a7.426,7.426,0,0,1-.488,2.718,14.463,14.463,0,0,1-4.07,3.5,8.529,8.529,0,0,1-4.721,1.62,14.523,14.523,0,0,0-2.767.784,15.173,15.173,0,0,1-1.953.679q-1.791.732-8.546,1.2a117.934,117.934,0,0,1-12.453.261Z" transform="matrix(-0.91, 0.41, -0.41, -0.91, 60.21, -0.18)"/></g><g class="e" transform="matrix(1, 0, 0, 1, 0, 0)"><path class="b" d="M0,0H65.76" transform="translate(48.54 76.07) rotate(-60)"/></g><g class="d" transform="matrix(1, 0, 0, 1, 0, 0)"><path class="b" d="M0,0H65.76" transform="translate(15.39 19.12) rotate(60)"/></g></g></svg>